<svg xmlns="http://www.w3.org/2000/svg" version="1.1" xmlns:xlink="http://www.w3.org/1999/xlink" xmlns:svgjs="http://svgjs.dev/svgjs" width="1000" height="750" viewBox="0 0 1000 750"><rect width="1000" height="750" fill="#ffffff"></rect><g transform="matrix(0.834,0,0,0.834,82.49454545454546,115.4193570850203)"><svg viewBox="0 0 396 247" data-background-color="#ffffff" preserveAspectRatio="xMidYMid meet" height="623" width="1000" xmlns="http://www.w3.org/2000/svg" xmlns:xlink="http://www.w3.org/1999/xlink"><g id="tight-bounds" transform="matrix(1,0,0,1,0.2400000000000091,-0.09999999999999432)"><svg viewBox="0 0 395.52 247.2" height="247.2" width="395.52"><g><svg></svg></g><g><svg viewBox="0 0 395.52 247.2" height="247.2" width="395.52"><g transform="matrix(1,0,0,1,75.54432,73.12854714608227)"><svg viewBox="0 0 244.43135999999998 100.94290570783545" height="100.94290570783545" width="244.43135999999998"><g><svg viewBox="0 0 244.43135999999998 100.94290570783545" height="100.94290570783545" width="244.43135999999998"><g><svg viewBox="0 0 244.43135999999998 100.94290570783545" height="100.94290570783545" width="244.43135999999998"><g><svg viewBox="0 0 244.43135999999998 100.94290570783545" height="100.94290570783545" width="244.43135999999998"><g id="textblocktransform"><svg viewBox="0 0 244.43135999999998 100.94290570783545" height="100.94290570783545" width="244.43135999999998" id="textblock"><g><svg viewBox="0 0 244.43135999999998 54.44377992479028" height="54.44377992479028" width="244.43135999999998"><g transform="matrix(1,0,0,1,0,0)"><svg width="244.43135999999998" viewBox="-0.25 -37.75 172.83999633789062 38.5" height="54.44377992479028" data-palette-color="#636365"><path d="M29.35 0L22.35 0 20.2-8 8.75-8 6.6 0-0.25 0 10.5-34.55 18.65-34.55 29.35 0ZM14.45-29.5L10.05-13 18.85-13 14.45-29.5ZM39.25 0.75Q36.2 0.75 34.47-1.03 32.75-2.8 32.75-6.05L32.75-6.05 32.75-37.05 39.15-37.75 39.15-6.25Q39.15-4.4 40.65-4.4L40.65-4.4Q41.4-4.4 42.15-4.65L42.15-4.65 43.5-0.15Q41.5 0.75 39.25 0.75L39.25 0.75ZM54 0.75Q50.95 0.75 49.22-1.03 47.5-2.8 47.5-6.05L47.5-6.05 47.5-37.05 53.9-37.75 53.9-6.25Q53.9-4.4 55.4-4.4L55.4-4.4Q56.15-4.4 56.9-4.65L56.9-4.65 58.25-0.15Q56.25 0.75 54 0.75L54 0.75ZM79.64-18.3Q83.19-17.65 85.37-15.75 87.54-13.85 87.54-9.95L87.54-9.95Q87.54-4.55 83.74-2.27 79.94 0 73.09 0L73.09 0 62.69 0 62.69-34.55 71.74-34.55Q86.04-34.55 86.04-25.75L86.04-25.75Q86.04-22.7 84.19-20.78 82.34-18.85 79.64-18.3L79.64-18.3ZM72.39-29.7L69.29-29.7 69.29-20.35 73.34-20.35Q76.09-20.35 77.69-21.58 79.29-22.8 79.29-25.2L79.29-25.2Q79.29-27.7 77.62-28.7 75.94-29.7 72.39-29.7L72.39-29.7ZM73.14-4.95Q76.79-4.95 78.72-6.05 80.64-7.15 80.64-10.2L80.64-10.2Q80.64-13.15 78.82-14.45 76.99-15.75 73.84-15.75L73.84-15.75 69.29-15.75 69.29-4.95 73.14-4.95ZM112.69-7Q112.69-5.45 113.17-4.73 113.64-4 114.69-3.6L114.69-3.6 113.34 0.65Q111.09 0.45 109.67-0.45 108.24-1.35 107.49-3.2L107.49-3.2Q106.14-1.2 104.12-0.23 102.09 0.75 99.59 0.75L99.59 0.75Q95.64 0.75 93.34-1.5 91.04-3.75 91.04-7.4L91.04-7.4Q91.04-11.7 94.17-13.98 97.29-16.25 103.09-16.25L103.09-16.25 106.39-16.25 106.39-17.75Q106.39-20.3 105.22-21.33 104.04-22.35 101.44-22.35L101.44-22.35Q98.54-22.35 94.44-20.95L94.44-20.95 92.94-25.3Q97.89-27.2 102.54-27.2L102.54-27.2Q112.69-27.2 112.69-18.1L112.69-18.1 112.69-7ZM101.29-3.9Q104.54-3.9 106.39-7.15L106.39-7.15 106.39-12.5 103.74-12.5Q97.54-12.5 97.54-7.9L97.54-7.9Q97.54-6 98.49-4.95 99.44-3.9 101.29-3.9L101.29-3.9ZM134.54-27.2Q138.09-27.2 140.06-25.08 142.04-22.95 142.04-19.15L142.04-19.15 142.04 0 135.64 0 135.64-18.15Q135.64-20.5 134.81-21.45 133.99-22.4 132.39-22.4L132.39-22.4Q130.74-22.4 129.41-21.38 128.09-20.35 126.84-18.4L126.84-18.4 126.84 0 120.44 0 120.44-26.45 125.99-26.45 126.49-23Q129.74-27.2 134.54-27.2L134.54-27.2ZM149.49-37.05L155.89-37.75 155.89 0 149.49 0 149.49-37.05ZM164.99-26.45L171.74-26.45 162.94-14.8 172.59 0 165.24 0 156.14-14.45 164.99-26.45Z" opacity="1" transform="matrix(1,0,0,1,0,0)" fill="#000000" class="wordmark-text-0" data-fill-palette-color="primary" id="text-0"></path></svg></g></svg></g><g transform="matrix(1,0,0,1,0,67.29664971431507)"><svg viewBox="0 0 244.43135999999998 33.64625599352039" height="33.64625599352039" width="244.43135999999998"><g transform="matrix(1,0,0,1,0,0)"><svg width="244.43135999999998" viewBox="4.25 -33.25 247 34" height="33.64625599352039" data-palette-color="#89939e"><path d="M21.25-26.25L21.25-26.25 21.25-6.25Q21.25-2.9 19.13-1.07 17 0.75 12.78 0.75 8.55 0.75 6.4-1.07 4.25-2.9 4.25-6.25L4.25-6.25 4.25-26.25Q4.25-29.6 6.38-31.43 8.5-33.25 12.73-33.25 16.95-33.25 19.1-31.43 21.25-29.6 21.25-26.25ZM17.75-6.25L17.75-6.25 17.75-26.25Q17.75-30.25 12.75-30.25 7.75-30.25 7.75-26.25L7.75-26.25 7.75-6.25Q7.75-2.25 12.75-2.25 17.75-2.25 17.75-6.25ZM39.96-6.25L39.96-6.25 39.96-32.5 43.46-32.5 43.46-6.25Q43.46-4.35 44.29-3.3 45.11-2.25 47.31-2.25 49.51-2.25 51.36-3.95 53.21-5.65 53.21-7.25L53.21-7.25 53.21-32.5 56.71-32.5 56.71 0 55.21 0 53.91-3.2Q52.81-1.4 51.09-0.33 49.36 0.75 47.31 0.75L47.31 0.75Q39.96 0.75 39.96-6.25ZM80.18-22.85L80.18 0 76.68 0 76.68-32.5 78.18-32.5 79.63-28.8Q81.23-33.25 84.73-33.25L84.73-33.25Q90.68-33.25 90.68-26.75L90.68-26.75 90.68-23.5 87.33-23.5 87.33-26.95Q87.33-30.25 84.58-30.25L84.58-30.25Q82.93-30.25 81.55-28.35 80.18-26.45 80.18-22.85L80.18-22.85ZM128.11 0L128.11-32.5 135.66-32.5Q139.56-32.5 141.58-30.65 143.61-28.8 143.61-25.5L143.61-25.5 143.61-22.5Q143.61-18.25 140.06-17.05L140.06-17.05Q144.11-15.95 144.11-11.5L144.11-11.5 144.11-7Q144.11-3.65 142.11-1.83 140.11 0 136.16 0L136.16 0 128.11 0ZM140.61-7L140.61-7 140.61-11.5Q140.61-13.1 139.41-14.43 138.21-15.75 136.16-15.75L136.16-15.75 131.61-15.75 131.61-3 136.16-3Q138.26-3 139.43-4.17 140.61-5.35 140.61-7ZM140.11-22.5L140.11-22.5 140.11-25.5Q140.11-27.1 138.93-28.3 137.76-29.5 135.66-29.5L135.66-29.5 131.61-29.5 131.61-18.25 135.66-18.25Q137.76-18.25 138.93-19.55 140.11-20.85 140.11-22.5ZM178.82-26.25L178.82 0 177.32 0 176.02-3.2Q174.97-1.4 173.27-0.33 171.57 0.75 169.52 0.75L169.52 0.75Q162.32 0.75 162.32-6.25L162.32-6.25 162.32-11.25Q162.32-18.25 169.52-18.25L169.52-18.25 175.32-18.25 175.32-26.45Q175.32-28.25 174.17-29.25 173.02-30.25 170.77-30.25L170.77-30.25Q166.32-30.25 166.32-26.45L166.32-26.45 166.32-23.5 162.82-23.5 162.82-26.25Q162.82-29.6 164.8-31.43 166.77-33.25 170.77-33.25 174.77-33.25 176.8-31.43 178.82-29.6 178.82-26.25L178.82-26.25ZM175.32-7.1L175.32-15.25 169.52-15.25Q167.42-15.25 166.62-14.2 165.82-13.15 165.82-11.25L165.82-11.25 165.82-6.25Q165.82-4.35 166.62-3.3 167.42-2.25 169.52-2.25 171.62-2.25 173.42-3.88 175.22-5.5 175.32-7.1L175.32-7.1ZM201.79-25.25L201.79 0 198.29 0 198.29-32.5 199.79-32.5 201.04-29.25Q203.44-33.25 207.69-33.25L207.69-33.25Q215.04-33.25 215.04-26.25L215.04-26.25 215.04 0 211.54 0 211.54-26.25Q211.54-28.15 210.71-29.2 209.89-30.25 207.69-30.25 205.49-30.25 203.64-28.55 201.79-26.85 201.79-25.25L201.79-25.25ZM238.05-12.5L238.05 0 234.55 0 234.55-32.5 238.05-32.5 238.05-18.7 246.75-32.5 250.65-32.5 241.8-18.5 251.25 0 247.4 0 239.7-15.15 238.05-12.5Z" opacity="1" transform="matrix(1,0,0,1,0,0)" fill="#5CE1E6" class="slogan-text-1" data-fill-palette-color="secondary" id="text-1"></path></svg></g></svg></g></svg></g></svg></g></svg></g></svg></g></svg></g><g><path d="M0 123.6c0-68.262 55.338-123.6 123.6-123.6 47.745 0 89.167 27.071 109.754 66.702l-2.775 0c-20.374-38.227-60.638-64.247-106.979-64.247-66.907 0-121.145 54.239-121.145 121.145 0 66.907 54.239 121.145 121.145 121.145 46.341 0 86.605-26.02 106.979-64.247h2.775c-20.587 39.631-62.009 66.702-109.754 66.702-68.262 0-123.6-55.338-123.6-123.6z" fill="#5CE1E6" stroke="transparent" data-fill-palette-color="tertiary"></path></g></svg></g><defs></defs></svg><rect width="395.52" height="247.2" fill="none" stroke="none" visibility="hidden"></rect></g></svg></g></svg>